<svg width="25" height="25" viewBox="0 0 25 25" fill="none" xmlns="http://www.w3.org/2000/svg">
<path d="M12.5 0C5.59378 0 0 5.59378 0 12.5C0 19.4062 5.59378 25 12.5 25C19.4062 25 25.0001 19.4063 25.0001 12.5C25.0001 5.59372 19.4063 0 12.5 0ZM2.50002 12.5C2.50002 6.97501 6.97501 2.49996 12.5001 2.49996C14.8126 2.49996 16.9313 3.29374 18.625 4.60624L4.60624 18.625C3.29374 16.9313 2.50002 14.8125 2.50002 12.5ZM12.5 22.5C10.1875 22.5 8.06872 21.7063 6.37501 20.3938L20.3938 6.37501C21.7063 8.06878 22.5 10.1875 22.5 12.5C22.5 18.025 18.025 22.5 12.5 22.5Z" fill="white"/>
</svg>
