<svg width="37" height="37" viewBox="0 0 37 37" fill="none" xmlns="http://www.w3.org/2000/svg">
<path d="M25.5709 9.66125L18.4999 16.7322L11.4288 9.66108C10.941 9.17329 10.149 9.17329 9.66102 9.66125C9.17322 10.149 9.17322 10.9411 9.66102 11.4289L16.7321 18.5L9.66102 25.5711C9.17322 26.0589 9.17322 26.851 9.66102 27.3388C10.149 27.8267 10.941 27.8267 11.4288 27.3389L18.4999 20.2678L25.5709 27.3388C26.0588 27.8267 26.8509 27.8267 27.3387 27.3389C27.8266 26.851 27.8266 26.0589 27.3387 25.5709L20.2678 18.5L27.3387 11.4291C27.8266 10.9411 27.8266 10.149 27.3387 9.66108C26.8509 9.17329 26.0588 9.17329 25.5709 9.66125Z" fill="#292B37"/>
</svg>
