<svg width="25" height="25" viewBox="0 0 25 25" fill="none" xmlns="http://www.w3.org/2000/svg">
<path d="M0.671383 10.8738C0.672146 10.8732 0.672718 10.8725 0.673292 10.8719L10.8723 0.674248C11.3071 0.239372 11.8851 0 12.4999 0C13.1147 0 13.6926 0.239372 14.1276 0.674248L24.3213 10.8667C24.3247 10.8702 24.3283 10.8738 24.3316 10.8772C25.2243 11.775 25.2228 13.2317 24.3272 14.1272C23.918 14.5365 23.3778 14.7734 22.8 14.7984C22.7764 14.8006 22.7527 14.8018 22.7289 14.8018H22.3225V22.3064C22.3225 23.7917 21.1139 25 19.6285 25H15.6383C15.2337 25 14.9058 24.6719 14.9058 24.2676V18.3838C14.9058 17.7061 14.3544 17.1549 13.6766 17.1549H11.3231C10.6453 17.1549 10.0941 17.7061 10.0941 18.3838V24.2676C10.0941 24.6719 9.76616 25 9.36157 25H5.37137C3.88578 25 2.67735 23.7917 2.67735 22.3064V14.8018H2.30042C1.68581 14.8018 1.10783 14.5624 0.672718 14.1273C-0.223825 13.2305 -0.224207 11.7712 0.671383 10.8738ZM1.7087 13.0917C1.86684 13.2498 2.07705 13.3369 2.30042 13.3369H3.40985C3.81444 13.3369 4.14235 13.6648 4.14235 14.0694V22.3064C4.14235 22.9839 4.69362 23.5352 5.37137 23.5352H8.62907V18.3838C8.62907 16.8985 9.8375 15.69 11.3231 15.69H13.6766C15.1622 15.69 16.3708 16.8985 16.3708 18.3838V23.5352H19.6285C20.3061 23.5352 20.8576 22.9839 20.8576 22.3064V14.0694C20.8576 13.6648 21.1855 13.3369 21.5901 13.3369H22.6804C22.6918 13.3362 22.7031 13.3356 22.7147 13.3354C22.933 13.3316 23.1376 13.245 23.291 13.0915C23.6172 12.7653 23.6172 12.2345 23.291 11.9081C23.2908 11.9081 23.2908 11.908 23.2906 11.9078L23.2901 11.9072L13.0914 1.70994C12.9334 1.55182 12.7234 1.46484 12.4999 1.46484C12.2765 1.46484 12.0665 1.55182 11.9083 1.70994L1.71195 11.9051C1.71042 11.9066 1.7087 11.9081 1.70718 11.9097C1.38271 12.2364 1.38328 12.7661 1.7087 13.0917Z" fill="white"/>
</svg>
