<svg width="29" height="25" viewBox="0 0 29 25" fill="none" xmlns="http://www.w3.org/2000/svg">
<path d="M14.05 25C13.65 25 13.2643 24.8551 12.9637 24.5918C11.8285 23.5992 10.7341 22.6664 9.76851 21.8436L9.76357 21.8393C6.93261 19.4268 4.48796 17.3434 2.78702 15.2911C0.885629 12.9967 0 10.8214 0 8.44489C0 6.13595 0.791728 4.00581 2.22919 2.44657C3.6838 0.868907 5.67973 0 7.84996 0C9.47201 0 10.9575 0.512812 12.265 1.52407C12.9249 2.03452 13.5231 2.65925 14.05 3.38794C14.5772 2.65925 15.1751 2.03452 15.8352 1.52407C17.1427 0.512812 18.6282 0 20.2503 0C22.4203 0 24.4164 0.868907 25.871 2.44657C27.3085 4.00581 28.1 6.13595 28.1 8.44489C28.1 10.8214 27.2146 12.9967 25.3132 15.2909C23.6123 17.3434 21.1678 19.4266 18.3373 21.8389C17.37 22.663 16.2738 23.5973 15.1361 24.5922C14.8357 24.8551 14.4498 25 14.05 25ZM7.84996 1.64606C6.14495 1.64606 4.57865 2.32652 3.43918 3.56224C2.28278 4.81661 1.64584 6.55057 1.64584 8.44489C1.64584 10.4436 2.38869 12.2312 4.05426 14.2408C5.66408 16.1834 8.05856 18.2239 10.831 20.5866L10.8361 20.5909C11.8054 21.417 12.9041 22.3534 14.0477 23.3533C15.198 22.3515 16.2985 21.4135 17.2697 20.5862C20.0419 18.2235 22.4362 16.1834 24.046 14.2408C25.7113 12.2312 26.4542 10.4436 26.4542 8.44489C26.4542 6.55057 25.8172 4.81661 24.6608 3.56224C23.5216 2.32652 21.9551 1.64606 20.2503 1.64606C19.0013 1.64606 17.8545 2.0431 16.842 2.82604C15.9396 3.52408 15.311 4.40649 14.9425 5.02393C14.753 5.34143 14.4194 5.53095 14.05 5.53095C13.6806 5.53095 13.347 5.34143 13.1575 5.02393C12.7892 4.40649 12.1606 3.52408 11.2581 2.82604C10.2455 2.0431 9.09876 1.64606 7.84996 1.64606Z" fill="white"/>
</svg>
