<svg width="66" height="22" viewBox="0 0 66 22" fill="none" xmlns="http://www.w3.org/2000/svg">
<path d="M18.72 10.8C17.28 13.96 16.56 17.37 16.56 21.03C16.02 21.41 15.35 21.6 14.55 21.6C13.77 21.6 13.13 21.41 12.63 21.03C12.13 20.67 11.83 20.3 11.73 19.92C11.23 20.44 10.57 20.85 9.75 21.15C8.95 21.45 8.12 21.6 7.26 21.6C6.4 21.6 5.59 21.46 4.83 21.18C4.09 20.9 3.43 20.45 2.85 19.83C1.57 18.47 0.93 16.5 0.93 13.92C0.93 9.92 2 6.72 4.14 4.32C6.34 1.84 9.39 0.6 13.29 0.6C15.99 0.6 17.82 1.3 18.78 2.7C19.08 3.14 19.23 3.63 19.23 4.17C19.23 4.69 19.11 5.18 18.87 5.64C18.65 6.08 18.36 6.48 18 6.84C17.14 7.64 16.18 8.04 15.12 8.04C14.7 8.04 14.29 7.97 13.89 7.83C13.97 7.23 14.01 6.58 14.01 5.88C14.01 5.18 13.98 4.67 13.92 4.35C13.88 4.03 13.8 3.74 13.68 3.48C13.42 2.94 13 2.67 12.42 2.67C11.86 2.67 11.26 2.98 10.62 3.6C10 4.2 9.44 5 8.94 6C7.84 8.24 7.29 10.71 7.29 13.41C7.29 14.65 7.53 15.71 8.01 16.59C8.53 17.55 9.25 18.03 10.17 18.03C10.49 18.03 10.79 17.95 11.07 17.79C11.37 17.63 11.58 17.49 11.7 17.37L12.66 11.34L18.72 10.8ZM19.2975 21L24.7275 1.2H30.9975L32.3775 12.51L37.9575 1.2H43.2075L43.7475 16.02C43.8275 17.98 44.3475 19.26 45.3075 19.86C45.0875 20.26 44.6575 20.65 44.0175 21.03C43.3775 21.41 42.6275 21.6 41.7675 21.6C40.9275 21.6 40.2575 21.48 39.7575 21.24C39.2575 21 38.8675 20.68 38.5875 20.28C38.0875 19.56 37.8375 18.51 37.8375 17.13V7.86L31.9275 21H28.2075L26.1075 7.53L22.7475 21H19.2975ZM47.0217 2.4C47.6017 1.2 48.6917 0.6 50.2917 0.6C51.9117 0.6 53.0917 1.07 53.8317 2.01C54.5917 2.93 54.9717 4.46 54.9717 6.6V17.31L62.2617 1.23H65.8317L56.5017 21H49.4817L48.5817 6.6C48.5217 5.54 48.3417 4.65 48.0417 3.93C47.7617 3.21 47.4217 2.7 47.0217 2.4Z" fill="#12F1FF"/>
</svg>
