<svg width="35" height="25" viewBox="0 0 35 25" fill="none" xmlns="http://www.w3.org/2000/svg">
<path d="M33.1732 13.9425H1.44231C0.646154 13.9425 0 13.2963 0 12.5002C0 11.704 0.646154 11.0579 1.44231 11.0579H33.1732C33.9694 11.0579 34.6155 11.704 34.6155 12.5002C34.6155 13.2963 33.9694 13.9425 33.1732 13.9425Z" fill="#292B37"/>
<path d="M33.1732 2.88463H1.44231C0.646154 2.88463 0 2.23847 0 1.44231C0 0.646154 0.646154 0 1.44231 0H33.1732C33.9694 0 34.6155 0.646154 34.6155 1.44231C34.6155 2.23847 33.9694 2.88463 33.1732 2.88463Z" fill="#292B37"/>
<path d="M33.1732 25H1.44231C0.646154 25 0 24.3539 0 23.5577C0 22.7615 0.646154 22.1154 1.44231 22.1154H33.1732C33.9694 22.1154 34.6155 22.7615 34.6155 23.5577C34.6155 24.3539 33.9694 25 33.1732 25Z" fill="#292B37"/>
</svg>
