<svg width="29" height="25" viewBox="0 0 29 25" fill="none" xmlns="http://www.w3.org/2000/svg">
<path d="M23.4111 9.60068C23.6912 9.87855 24.1434 9.8766 24.4213 9.59649L28.5931 5.38901C28.8701 5.10974 28.8693 4.65917 28.5911 4.38129L24.4191 0.209244C24.1401 -0.069748 23.6878 -0.069748 23.4091 0.209244C23.1301 0.487957 23.1301 0.940203 23.4091 1.2192L26.3617 4.17205H22.0716C20.057 4.17707 18.1599 5.12202 16.9418 6.72678L13.4787 11.3137L10.0155 6.72678C8.79746 5.12202 6.90031 4.17707 4.88543 4.17205H0.71422C0.319725 4.17205 0 4.49177 0 4.88627C0 5.28076 0.319725 5.60049 0.71422 5.60049H4.88515C6.45225 5.60439 7.92784 6.33926 8.8753 7.58747L12.5837 12.4988L8.87558 17.4102C7.92812 18.6584 6.45253 19.3933 4.88543 19.3972H0.71422C0.319725 19.3972 0 19.7169 0 20.1114C0 20.5059 0.319725 20.8256 0.71422 20.8256H4.88515C6.90003 20.8206 8.79718 19.8757 10.0153 18.2709L13.4787 13.6843L16.9418 18.2712C18.1599 19.876 20.057 20.8209 22.0719 20.8259H26.362L23.4088 23.7785C23.2272 23.9587 23.1558 24.2224 23.2216 24.4696C23.2875 24.7167 23.4805 24.9101 23.728 24.9759C23.9752 25.0418 24.2388 24.9704 24.4191 24.7884L28.5908 20.6164C28.869 20.3382 28.8698 19.888 28.5931 19.6087L24.421 15.4012C24.2422 15.2165 23.9777 15.142 23.7288 15.2067C23.4797 15.2712 23.2847 15.4645 23.218 15.7131C23.1513 15.9614 23.2236 16.2265 23.4069 16.407L26.372 19.3972H22.0716C20.5045 19.3933 19.0289 18.6584 18.0815 17.4102L14.3734 12.4988L18.0815 7.58747C19.0289 6.33926 20.5045 5.60439 22.0716 5.60049H26.3717L23.4069 8.59072C23.129 8.87083 23.131 9.32308 23.4111 9.60068Z" fill="white"/>
</svg>
