<svg width="25" height="25" viewBox="0 0 25 25" fill="none" xmlns="http://www.w3.org/2000/svg">
<path d="M19.6388 0.896869C19.6388 0.557639 19.4424 0.236264 19.1389 0.0934309C18.8175 -0.0672567 18.4604 -0.0136942 18.1926 0.200556L10.2832 6.50308L19.6388 15.8587V0.896869Z" fill="white"/>
<path d="M24.7338 23.4752L1.52341 0.264779C1.17525 -0.083377 0.609274 -0.083377 0.261117 0.264779C-0.0870391 0.612936 -0.0870391 1.17891 0.261117 1.52707L5.87804 7.14578H5.35491C4.80143 7.14578 4.31937 7.39574 3.998 7.78853C3.73018 8.09205 3.5695 8.5027 3.5695 8.9312V16.0729C3.5695 17.0548 4.37293 17.8583 5.35491 17.8583H9.49708L18.1921 24.8036C18.3528 24.9285 18.5492 25 18.7455 25C18.8705 25 19.0134 24.9642 19.1383 24.9107C19.4419 24.7679 19.6383 24.4465 19.6383 24.1072V20.906L23.4698 24.7375C23.6447 24.9125 23.8733 25 24.1018 25C24.3303 25 24.5589 24.9125 24.7338 24.7393C25.082 24.3893 25.082 23.8252 24.7338 23.4752Z" fill="white"/>
</svg>
