<svg width="27" height="25" viewBox="0 0 27 25" fill="none" xmlns="http://www.w3.org/2000/svg">
<path d="M15.5654 0.0885392C15.2547 -0.0596689 14.8887 -0.0203848 14.6208 0.195678L5.93547 7.1436H1.78564C0.801752 7.1436 0 7.94535 0 8.92924V16.0718C0 17.0575 0.801752 17.8574 1.78564 17.8574H5.93547L14.619 24.8054C14.7815 24.9339 14.9797 25 15.1779 25C15.3101 25 15.4422 24.9696 15.5654 24.9107C15.8743 24.7625 16.0708 24.45 16.0708 24.1072V0.893863C16.0708 0.55102 15.8743 0.238533 15.5654 0.0885392Z" fill="white"/>
<path d="M20.5904 6.18662C20.2386 5.8402 19.6743 5.84556 19.3279 6.19376C18.9815 6.54553 18.9851 7.10979 19.335 7.45799C20.685 8.79008 21.4278 10.5811 21.4278 12.5006C21.4278 14.4202 20.685 16.2112 19.335 17.5433C18.9851 17.8879 18.9815 18.454 19.3279 18.8057C19.5029 18.9825 19.7332 19.07 19.9618 19.07C20.1886 19.07 20.4154 18.9843 20.5904 18.8111C22.2831 17.1451 23.2135 14.9023 23.2135 12.5006C23.2135 10.099 22.2831 7.85619 20.5904 6.18662Z" fill="white"/>
<path d="M23.1099 3.67053C22.7582 3.32233 22.1939 3.3259 21.8457 3.67589C21.4993 4.02587 21.5029 4.59192 21.8511 4.93833C23.8813 6.95075 24.9991 9.63635 24.9991 12.5005C24.9991 15.3647 23.8813 18.0485 21.8511 20.0609C21.5029 20.4091 21.4993 20.9752 21.8457 21.3252C22.0225 21.5001 22.251 21.5876 22.4796 21.5876C22.7064 21.5876 22.9349 21.5019 23.1099 21.3287C25.4813 18.9806 26.7848 15.845 26.7848 12.5005C26.7848 9.15601 25.4813 6.02043 23.1099 3.67053Z" fill="white"/>
</svg>
