<svg width="21" height="25" viewBox="0 0 21 25" fill="none" xmlns="http://www.w3.org/2000/svg">
<path d="M10.2715 12.0426C11.9259 12.0426 13.3584 11.4492 14.5291 10.2785C15.6994 9.10797 16.293 7.67574 16.293 6.02112C16.293 4.36707 15.6996 2.93465 14.5289 1.76373C13.3582 0.593376 11.9257 0 10.2715 0C8.61687 0 7.18465 0.593376 6.01411 1.76392C4.84357 2.93446 4.25 4.36687 4.25 6.02112C4.25 7.67574 4.84357 9.10816 6.01411 10.2787C7.18503 11.4491 8.61745 12.0426 10.2715 12.0426ZM7.05018 2.7998C7.94835 1.90163 9.00197 1.46503 10.2715 1.46503C11.5408 1.46503 12.5947 1.90163 13.493 2.7998C14.3912 3.69816 14.828 4.75197 14.828 6.02112C14.828 7.29065 14.3912 8.34427 13.493 9.24263C12.5947 10.141 11.5408 10.5776 10.2715 10.5776C9.00235 10.5776 7.94873 10.1408 7.05018 9.24263C6.15182 8.34446 5.71503 7.29065 5.71503 6.02112C5.71503 4.75197 6.15182 3.69816 7.05018 2.7998Z" fill="white"/>
<path d="M20.8071 19.2238C20.7733 18.7367 20.705 18.2053 20.6045 17.6442C20.503 17.0788 20.3724 16.5444 20.216 16.0559C20.0542 15.551 19.8347 15.0525 19.5629 14.5747C19.2812 14.0788 18.9501 13.6469 18.5785 13.2916C18.19 12.9199 17.7143 12.621 17.1642 12.403C16.6161 12.1861 16.0086 12.0762 15.3587 12.0762C15.1035 12.0762 14.8567 12.181 14.3801 12.4913C14.0867 12.6826 13.7436 12.9038 13.3606 13.1486C13.0331 13.3572 12.5895 13.5527 12.0415 13.7297C11.5068 13.9027 10.964 13.9905 10.428 13.9905C9.89246 13.9905 9.34963 13.9027 8.81462 13.7297C8.26721 13.5529 7.82337 13.3574 7.49645 13.1487C7.11708 12.9063 6.77376 12.6851 6.47602 12.4911C5.99976 12.1808 5.75294 12.076 5.49774 12.076C4.84772 12.076 4.24042 12.1861 3.69244 12.4032C3.14274 12.6208 2.66685 12.9197 2.27795 13.2918C1.90639 13.6473 1.57528 14.079 1.29375 14.5747C1.02234 15.0525 0.802612 15.5509 0.640869 16.0561C0.484657 16.5446 0.354004 17.0788 0.252533 17.6442C0.151825 18.2046 0.0837326 18.7361 0.0499726 19.2244C0.0167847 19.7018 0 20.1987 0 20.7007C0 22.0057 0.414848 23.0622 1.23291 23.8413C2.04086 24.6102 3.10974 25.0001 4.40998 25.0001H16.4476C17.7475 25.0001 18.8164 24.6102 19.6245 23.8413C20.4428 23.0628 20.8576 22.0059 20.8576 20.7005C20.8574 20.1968 20.8405 19.6999 20.8071 19.2238ZM18.6144 22.7799C18.0805 23.288 17.3717 23.535 16.4474 23.535H4.40998C3.48549 23.535 2.77672 23.288 2.24304 22.7801C1.71947 22.2817 1.46503 21.6013 1.46503 20.7007C1.46503 20.2323 1.48048 19.7697 1.51138 19.3257C1.54152 18.8901 1.60313 18.4115 1.69449 17.903C1.78471 17.4008 1.89953 16.9295 2.03609 16.5028C2.16713 16.0937 2.34585 15.6886 2.56748 15.2983C2.77901 14.9264 3.02238 14.6073 3.29094 14.3502C3.54214 14.1097 3.85876 13.9128 4.23183 13.7652C4.57687 13.6286 4.96464 13.5539 5.38559 13.5426C5.4369 13.5699 5.52826 13.622 5.67627 13.7185C5.97744 13.9147 6.32458 14.1387 6.70834 14.3838C7.14092 14.6596 7.69825 14.9087 8.36411 15.1236C9.04484 15.3437 9.73911 15.4555 10.4282 15.4555C11.1174 15.4555 11.8118 15.3437 12.4922 15.1238C13.1586 14.9085 13.7157 14.6596 14.1489 14.3834C14.5416 14.1324 14.879 13.9149 15.1802 13.7185C15.3282 13.6221 15.4196 13.5699 15.4709 13.5426C15.892 13.5539 16.2798 13.6286 16.625 13.7652C16.9979 13.9128 17.3145 14.1099 17.5657 14.3502C17.8343 14.6071 18.0777 14.9262 18.2892 15.2985C18.511 15.6886 18.6899 16.0939 18.8208 16.5026C18.9575 16.9299 19.0725 17.401 19.1626 17.9028C19.2537 18.4123 19.3155 18.891 19.3457 19.3259C19.3768 19.7682 19.3924 20.2309 19.3926 20.7007C19.3924 21.6015 19.138 22.2817 18.6144 22.7799Z" fill="white"/>
</svg>
