<svg width="500" height="500" viewBox="0 0 500 500" fill="none" xmlns="http://www.w3.org/2000/svg">
<path d="M249.959 65.3958C174.313 65.3958 102.48 58.6667 75.0424 129.083C63.709 158.167 65.3549 195.938 65.3549 250.021C65.3549 297.479 63.834 342.083 75.0424 370.938C102.417 441.396 174.834 434.646 249.917 434.646C322.355 434.646 397.042 442.188 424.813 370.938C436.167 341.563 434.501 304.354 434.501 250.021C434.501 177.896 438.48 131.333 403.501 96.375C368.084 60.9583 320.188 65.3958 249.876 65.3958H249.959ZM233.417 98.6667C391.209 98.4167 411.292 80.875 400.209 324.563C396.271 410.75 330.646 401.292 249.98 401.292C102.897 401.292 98.6674 397.083 98.6674 249.938C98.6674 101.083 110.334 98.75 233.417 98.625V98.6667ZM348.501 129.312C336.272 129.312 326.355 139.229 326.355 151.458C326.355 163.687 336.272 173.604 348.501 173.604C360.73 173.604 370.647 163.687 370.647 151.458C370.647 139.229 360.73 129.312 348.501 129.312V129.312ZM249.959 155.208C197.605 155.208 155.167 197.667 155.167 250.021C155.167 302.375 197.605 344.813 249.959 344.813C302.313 344.813 344.73 302.375 344.73 250.021C344.73 197.667 302.313 155.208 249.959 155.208V155.208ZM249.959 188.479C331.313 188.479 331.417 311.563 249.959 311.563C168.626 311.563 168.501 188.479 249.959 188.479Z" fill="white"/>
</svg>
