<svg width="500" height="500" viewBox="0 0 500 500" fill="none" xmlns="http://www.w3.org/2000/svg">
<g clip-path="url(#clip0)">
<path d="M500 94.9688C481.406 103.125 461.594 108.531 440.937 111.156C462.187 98.4687 478.406 78.5312 486.031 54.5C466.219 66.3125 444.344 74.6563 421.031 79.3125C402.219 59.2813 375.406 46.875 346.156 46.875C289.406 46.875 243.719 92.9375 243.719 149.406C243.719 157.531 244.406 165.344 246.094 172.781C160.875 168.625 85.4688 127.781 34.8125 65.5625C25.9687 80.9063 20.7813 98.4688 20.7813 117.375C20.7813 152.875 39.0625 184.344 66.3125 202.562C49.8437 202.25 33.6875 197.469 20 189.938C20 190.25 20 190.656 20 191.062C20 240.875 55.5312 282.25 102.125 291.781C93.7812 294.062 84.6875 295.156 75.25 295.156C68.6875 295.156 62.0625 294.781 55.8437 293.406C69.125 334 106.813 363.844 151.625 364.812C116.75 392.094 72.4688 408.531 24.5313 408.531C16.125 408.531 8.0625 408.156 0 407.125C45.4062 436.406 99.2188 453.125 157.25 453.125C345.875 453.125 449 296.875 449 161.437C449 156.906 448.844 152.531 448.625 148.188C468.969 133.75 486.062 115.719 500 94.9688Z" fill="white"/>
</g>
<defs>
<clipPath id="clip0">
<rect width="500" height="500" fill="white"/>
</clipPath>
</defs>
</svg>
