<svg width="500" height="500" viewBox="0 0 500 500" fill="none" xmlns="http://www.w3.org/2000/svg">
<g clip-path="url(#clip0)">
<path d="M244.65 391.442H274.527C274.527 391.442 283.559 390.442 288.153 385.473C292.404 380.91 292.247 372.347 292.247 372.347C292.247 372.347 291.654 332.25 310.28 326.344C328.625 320.531 352.189 365.096 377.16 382.254C396.036 395.224 410.381 392.38 410.381 392.38L477.167 391.442C477.167 391.442 512.107 389.286 495.544 361.815C494.2 359.565 485.887 341.501 445.884 304.373C404.006 265.495 409.631 271.808 460.072 204.585C490.793 163.644 503.076 138.642 499.232 127.954C495.575 117.766 472.98 120.453 472.98 120.453L397.849 120.891C397.849 120.891 392.286 120.141 388.13 122.61C384.098 125.047 381.504 130.673 381.504 130.673C381.504 130.673 369.597 162.363 353.721 189.302C320.25 246.15 306.842 249.15 301.373 245.619C288.653 237.4 291.841 212.554 291.841 194.928C291.841 139.83 300.186 116.859 275.559 110.921C267.371 108.952 261.37 107.64 240.462 107.421C213.648 107.14 190.927 107.515 178.083 113.797C169.52 117.984 162.925 127.329 166.957 127.86C171.926 128.516 183.177 130.892 189.146 139.017C196.865 149.487 196.584 173.051 196.584 173.051C196.584 173.051 201.022 237.9 186.24 245.963C176.083 251.494 162.175 240.212 132.329 188.615C117.047 162.206 105.484 132.986 105.484 132.986C105.484 132.986 103.265 127.548 99.2956 124.641C94.4827 121.11 87.7322 119.985 87.7322 119.985L16.2894 120.422C16.2894 120.422 5.56989 120.735 1.6321 125.391C-1.86816 129.548 1.35083 138.111 1.35083 138.111C1.35083 138.111 57.2925 268.964 120.61 334.938C178.708 395.411 244.65 391.442 244.65 391.442Z" fill="white"/>
</g>
<defs>
<clipPath id="clip0">
<rect width="500" height="500" fill="white"/>
</clipPath>
</defs>
</svg>
