<svg width="500" height="500" viewBox="0 0 500 500" fill="none" xmlns="http://www.w3.org/2000/svg">
<g clip-path="url(#clip0)">
<path fill-rule="evenodd" clip-rule="evenodd" d="M445.631 85.9039C467.047 91.6717 483.934 108.555 489.698 129.975C500.41 169.098 499.998 250.648 499.998 250.648C499.998 250.648 499.998 331.783 489.702 370.91C483.934 392.326 467.051 409.213 445.631 414.977C406.504 425.277 249.999 425.277 249.999 425.277C249.999 425.277 93.9022 425.277 54.3668 414.569C32.9474 408.801 16.0636 391.914 10.2958 370.498C0 331.783 0 250.237 0 250.237C0 250.237 0 169.098 10.2958 129.975C16.0598 108.559 33.3594 91.2597 54.363 85.4957C93.4902 75.196 249.995 75.196 249.995 75.196C249.995 75.196 406.504 75.196 445.631 85.9039ZM330.311 250.237L200.165 325.196V175.278L330.311 250.237Z" fill="white"/>
</g>
<defs>
<clipPath id="clip0">
<rect width="500" height="500" fill="white"/>
</clipPath>
</defs>
</svg>
